<svg width="874" height="424" viewBox="0 0 874 424" fill="none" xmlns="http://www.w3.org/2000/svg">
<g filter="url(#filter0_d)">
<circle cx="50" cy="50" r="50" transform="translate(4 101)" fill="#EB5757"/>
<circle cx="50" cy="50" r="47" transform="translate(4 101)" stroke="#ED8888" stroke-width="6"/>
</g>
<path d="M5.42583 5.58V15.48C5.42583 16.272 5.82783 16.668 6.63183 16.668H11.1138L11.1858 17.892C10.1418 17.976 8.53983 18.018 6.37983 18.018C4.69983 18.018 3.85983 17.238 3.85983 15.678V5.58H5.42583ZM13.0339 10.548L12.8899 9.414C14.4979 9.15 15.9079 9.018 17.1199 9.018C18.1399 9.018 18.8959 9.234 19.3879 9.666C19.8799 10.086 20.1259 10.806 20.1259 11.826V18H18.9199L18.7399 16.56C18.3199 16.98 17.7919 17.352 17.1559 17.676C16.5319 18 15.8539 18.162 15.1219 18.162C14.3179 18.162 13.6759 17.952 13.1959 17.532C12.7279 17.1 12.4939 16.494 12.4939 15.714V14.76C12.4939 14.076 12.7039 13.548 13.1239 13.176C13.5559 12.792 14.1559 12.6 14.9239 12.6H18.5779V11.826C18.5779 11.274 18.4519 10.884 18.1999 10.656C17.9479 10.428 17.4799 10.314 16.7959 10.314C15.9319 10.314 14.6779 10.392 13.0339 10.548ZM14.0599 14.976V15.534C14.0599 15.99 14.1679 16.326 14.3839 16.542C14.5999 16.746 14.9479 16.848 15.4279 16.848C15.8839 16.86 16.3999 16.752 16.9759 16.524C17.5639 16.296 18.0979 15.966 18.5779 15.534V13.77H15.1939C14.7859 13.782 14.4919 13.89 14.3119 14.094C14.1439 14.298 14.0599 14.592 14.0599 14.976ZM28.3488 9.018L28.1688 10.458H27.6648C27.2208 10.458 26.7588 10.548 26.2788 10.728C25.8108 10.896 25.1808 11.178 24.3888 11.574V18H22.8588V9.234H24.0468L24.2088 10.62C25.5648 9.552 26.8128 9.018 27.9528 9.018H28.3488ZM30.1374 10.548L29.9934 9.414C31.6014 9.15 33.0114 9.018 34.2234 9.018C35.2434 9.018 35.9994 9.234 36.4914 9.666C36.9834 10.086 37.2294 10.806 37.2294 11.826V18H36.0234L35.8434 16.56C35.4234 16.98 34.8954 17.352 34.2594 17.676C33.6354 18 32.9574 18.162 32.2254 18.162C31.4214 18.162 30.7794 17.952 30.2994 17.532C29.8314 17.1 29.5974 16.494 29.5974 15.714V14.76C29.5974 14.076 29.8074 13.548 30.2274 13.176C30.6594 12.792 31.2594 12.6 32.0274 12.6H35.6814V11.826C35.6814 11.274 35.5554 10.884 35.3034 10.656C35.0514 10.428 34.5834 10.314 33.8994 10.314C33.0354 10.314 31.7814 10.392 30.1374 10.548ZM31.1634 14.976V15.534C31.1634 15.99 31.2714 16.326 31.4874 16.542C31.7034 16.746 32.0514 16.848 32.5314 16.848C32.9874 16.86 33.5034 16.752 34.0794 16.524C34.6674 16.296 35.2014 15.966 35.6814 15.534V13.77H32.2974C31.8894 13.782 31.5954 13.89 31.4154 14.094C31.2474 14.298 31.1634 14.592 31.1634 14.976ZM47.7563 9.234L44.5523 17.622C44.4563 17.874 44.2763 18 44.0123 18H42.6263C42.3623 18 42.1823 17.874 42.0863 17.622L38.8823 9.234H40.5203L42.6803 15.372C42.8003 15.708 42.9743 16.218 43.2023 16.902H43.4363L43.9763 15.372L46.1363 9.234H47.7563ZM54.6758 14.364H50.5898C50.6738 15.372 50.9198 16.05 51.3278 16.398C51.7358 16.746 52.4138 16.92 53.3618 16.92C54.3578 16.92 55.3718 16.848 56.4038 16.704L56.5658 17.73C55.7858 18.054 54.6518 18.216 53.1638 18.216C51.6518 18.216 50.5718 17.868 49.9238 17.172C49.2878 16.464 48.9698 15.27 48.9698 13.59C48.9698 11.898 49.2818 10.716 49.9058 10.044C50.5298 9.36 51.5618 9.018 53.0018 9.018C54.3098 9.018 55.2638 9.258 55.8638 9.738C56.4638 10.206 56.7638 10.92 56.7638 11.88C56.7878 13.536 56.0918 14.364 54.6758 14.364ZM50.5718 13.176H54.2798C54.9158 13.176 55.2338 12.744 55.2338 11.88C55.2218 11.316 55.0538 10.914 54.7298 10.674C54.4058 10.434 53.8538 10.314 53.0738 10.314C52.1498 10.314 51.5078 10.518 51.1478 10.926C50.7878 11.322 50.5958 12.072 50.5718 13.176ZM60.6178 5.4V15.588C60.6058 15.972 60.7018 16.266 60.9058 16.47C61.1098 16.662 61.4098 16.758 61.8058 16.758H62.6518L62.8318 17.928C62.5078 18.084 61.9738 18.162 61.2298 18.162C60.5698 18.162 60.0478 17.97 59.6638 17.586C59.2798 17.19 59.0878 16.638 59.0878 15.93V5.4H60.6178Z" transform="translate(23 165.495) rotate(-44.1294)" fill="white"/>
<g filter="url(#filter1_d)">
<circle cx="50" cy="50" r="50" transform="translate(269) rotate(30)" fill="#8AADE5"/>
<circle cx="50" cy="50" r="47" transform="translate(269) rotate(30)" stroke="#7590B9" stroke-width="6"/>
</g>
<path d="M19.3708 5.58V18H17.7868V12.042H12.0628V18H10.4788V5.58H12.0628V10.674H17.7868V5.58H19.3708ZM30.9623 6.984H26.9483V18H25.3643V6.984H21.3683V5.58H30.9623V6.984ZM42.9153 5.58H44.6973C45.1293 5.58 45.3453 5.802 45.3453 6.246L45.8673 18H44.2833L43.8333 6.894H43.4553L40.6833 16.056C40.5873 16.416 40.3593 16.596 39.9993 16.596H38.5773C38.2053 16.596 37.9653 16.416 37.8573 16.056L35.0853 6.894H34.7253L34.2933 18H32.7093L33.1953 6.246C33.2193 5.802 33.4413 5.58 33.8613 5.58H35.6613C35.9973 5.58 36.2193 5.76 36.3273 6.12L38.6493 13.698C38.7213 13.914 38.8113 14.238 38.9193 14.67C39.0393 15.09 39.1053 15.324 39.1173 15.372H39.4413C39.4773 15.24 39.5433 14.982 39.6393 14.598C39.7473 14.202 39.8373 13.89 39.9093 13.662L42.2313 6.12C42.3273 5.76 42.5553 5.58 42.9153 5.58ZM50.2764 5.58V15.48C50.2764 16.272 50.6784 16.668 51.4824 16.668H55.9644L56.0364 17.892C54.9924 17.976 53.3904 18.018 51.2304 18.018C49.5504 18.018 48.7104 17.238 48.7104 15.678V5.58H50.2764Z" transform="translate(253.207 65.3539) rotate(-14.1294)" fill="white"/>
<g filter="url(#filter2_d)">
<circle cx="50" cy="50" r="50" transform="translate(627.794 49) rotate(54.8794)" fill="#BB6BD9"/>
<circle cx="50" cy="50" r="47" transform="translate(627.794 49) rotate(54.8794)" stroke="#9B51E0" stroke-width="6"/>
</g>
<path d="M29.1742 5.58V15.39C29.1742 16.302 28.9642 16.992 28.5442 17.46C28.1362 17.928 27.5422 18.162 26.7622 18.162C26.0902 18.162 25.5382 18.084 25.1062 17.928L25.2862 16.812H26.1862C27.1222 16.812 27.5902 16.356 27.5902 15.444V5.58H29.1742ZM36.6953 12.744L34.1213 12.096C33.2453 11.88 32.6153 11.496 32.2313 10.944C31.8593 10.38 31.6733 9.612 31.6733 8.64C31.6733 7.92 31.7453 7.344 31.8893 6.912C32.0453 6.468 32.3033 6.138 32.6633 5.922C33.0353 5.694 33.4433 5.544 33.8873 5.472C34.3433 5.4 34.9493 5.364 35.7053 5.364C37.1693 5.388 38.3993 5.508 39.3953 5.724L39.2873 6.876C38.1233 6.816 36.9533 6.786 35.7773 6.786C35.2493 6.786 34.8593 6.798 34.6073 6.822C34.3553 6.846 34.1093 6.918 33.8693 7.038C33.6293 7.158 33.4673 7.35 33.3833 7.614C33.3113 7.866 33.2753 8.22 33.2753 8.676C33.2753 9.336 33.3893 9.804 33.6173 10.08C33.8573 10.356 34.2653 10.566 34.8413 10.71L37.3613 11.34C38.2853 11.568 38.9333 11.958 39.3053 12.51C39.6773 13.062 39.8633 13.836 39.8633 14.832C39.8633 16.2 39.5513 17.106 38.9273 17.55C38.3153 17.994 37.2413 18.216 35.7053 18.216C34.3973 18.216 33.1133 18.102 31.8533 17.874L31.9613 16.704C33.9773 16.776 35.2433 16.806 35.7593 16.794C36.7433 16.794 37.4033 16.668 37.7393 16.416C38.0873 16.164 38.2613 15.624 38.2613 14.796C38.2613 14.112 38.1413 13.638 37.9013 13.374C37.6733 13.098 37.2713 12.888 36.6953 12.744Z" transform="translate(585.972 101.645) rotate(10.75)" fill="white"/>
<g filter="url(#filter3_d)">
<circle cx="50" cy="50" r="50" transform="translate(184.948 274.183) rotate(40.3651)" fill="#9B51E0"/>
<circle cx="50" cy="50" r="47" transform="translate(184.948 274.183) rotate(40.3651)" stroke="#D065F8" stroke-width="6"/>
</g>
<path d="M17.6068 18V5.58C18.6148 5.472 20.0368 5.418 21.8728 5.418C23.3848 5.418 24.4288 5.694 25.0048 6.246C25.5808 6.786 25.8688 7.806 25.8688 9.306C25.8688 10.806 25.5868 11.832 25.0228 12.384C24.4708 12.924 23.4808 13.194 22.0528 13.194C21.0688 13.194 20.1148 13.14 19.1908 13.032V18H17.6068ZM19.1908 11.826H21.8548C22.7788 11.814 23.4088 11.64 23.7448 11.304C24.0928 10.956 24.2668 10.29 24.2668 9.306C24.2668 8.322 24.0928 7.656 23.7448 7.308C23.3968 6.96 22.7668 6.786 21.8548 6.786C20.5468 6.786 19.6588 6.792 19.1908 6.804V11.826ZM37.116 5.58V18H35.532V12.042H29.808V18H28.224V5.58H29.808V10.674H35.532V5.58H37.116ZM40.2474 18V5.58C41.2554 5.472 42.6774 5.418 44.5134 5.418C46.0254 5.418 47.0694 5.694 47.6454 6.246C48.2214 6.786 48.5094 7.806 48.5094 9.306C48.5094 10.806 48.2274 11.832 47.6634 12.384C47.1114 12.924 46.1214 13.194 44.6934 13.194C43.7094 13.194 42.7554 13.14 41.8314 13.032V18H40.2474ZM41.8314 11.826H44.4954C45.4194 11.814 46.0494 11.64 46.3854 11.304C46.7334 10.956 46.9074 10.29 46.9074 9.306C46.9074 8.322 46.7334 7.656 46.3854 7.308C46.0374 6.96 45.4074 6.786 44.4954 6.786C43.1874 6.786 42.2994 6.792 41.8314 6.804V11.826Z" transform="translate(157.655 335.629) rotate(-3.76431)" fill="white"/>
<g filter="url(#filter4_d)">
<circle cx="50" cy="50" r="50" transform="translate(437.794 189) rotate(54.8794)" fill="#6FCF97"/>
<circle cx="50" cy="50" r="47" transform="translate(437.794 189) rotate(54.8794)" stroke="#27AE60" stroke-width="6"/>
</g>
<path d="M26.811 5.58L23.049 17.55C22.941 17.85 22.737 18 22.437 18H20.835C20.511 18 20.307 17.85 20.223 17.55L16.461 5.58H18.099L21.033 15.426C21.201 16.026 21.321 16.476 21.393 16.776H21.879C21.999 16.284 22.125 15.828 22.257 15.408L25.173 5.58H26.811ZM37.6358 5.58V13.248C37.6358 15.06 37.2998 16.344 36.6278 17.1C35.9558 17.856 34.8098 18.234 33.1898 18.234C31.5098 18.234 30.3218 17.856 29.6258 17.1C28.9418 16.344 28.5998 15.06 28.5998 13.248V5.58H30.1838V13.248C30.1838 14.58 30.3998 15.51 30.8318 16.038C31.2638 16.554 32.0258 16.812 33.1178 16.812C34.1978 16.812 34.9538 16.554 35.3858 16.038C35.8298 15.51 36.0518 14.58 36.0518 13.248V5.58H37.6358ZM48.2201 16.686L48.2921 17.91C47.1881 17.982 45.4121 18.018 42.9641 18.018C42.2321 18.018 41.6501 17.826 41.2181 17.442C40.7981 17.046 40.5821 16.518 40.5701 15.858V7.722C40.5821 7.062 40.7981 6.54 41.2181 6.156C41.6501 5.76 42.2321 5.562 42.9641 5.562C45.4121 5.562 47.1881 5.598 48.2921 5.67L48.2201 6.912H43.2341C42.5141 6.912 42.1541 7.308 42.1541 8.1V10.8H47.5181V12.078H42.1541V15.48C42.1541 16.284 42.5141 16.686 43.2341 16.686H48.2201Z" transform="translate(394.959 243.512) rotate(7.23692)" fill="white"/>
<g filter="url(#filter5_d)">
<circle cx="50" cy="50" r="50" transform="translate(868.998 228) rotate(89.6627)" fill="#F2994A"/>
<circle cx="50" cy="50" r="47" transform="translate(868.998 228) rotate(89.6627)" stroke="#F2C94C" stroke-width="6"/>
</g>
<path d="M26.897 16.614L27.059 17.802C26.063 18.078 24.851 18.216 23.423 18.216C21.635 18.216 20.375 17.736 19.643 16.776C18.911 15.816 18.545 14.154 18.545 11.79C18.545 9.426 18.911 7.764 19.643 6.804C20.375 5.844 21.635 5.364 23.423 5.364C24.707 5.364 25.835 5.484 26.807 5.724L26.645 6.93C25.565 6.822 24.491 6.768 23.423 6.768C22.211 6.768 21.371 7.134 20.903 7.866C20.447 8.586 20.219 9.894 20.219 11.79C20.219 13.686 20.447 15 20.903 15.732C21.371 16.452 22.211 16.812 23.423 16.812C24.815 16.812 25.973 16.746 26.897 16.614ZM33.7246 12.744L31.1506 12.096C30.2746 11.88 29.6446 11.496 29.2606 10.944C28.8886 10.38 28.7026 9.612 28.7026 8.64C28.7026 7.92 28.7746 7.344 28.9186 6.912C29.0746 6.468 29.3326 6.138 29.6926 5.922C30.0646 5.694 30.4726 5.544 30.9166 5.472C31.3726 5.4 31.9786 5.364 32.7346 5.364C34.1986 5.388 35.4286 5.508 36.4246 5.724L36.3166 6.876C35.1526 6.816 33.9826 6.786 32.8066 6.786C32.2786 6.786 31.8886 6.798 31.6366 6.822C31.3846 6.846 31.1386 6.918 30.8986 7.038C30.6586 7.158 30.4966 7.35 30.4126 7.614C30.3406 7.866 30.3046 8.22 30.3046 8.676C30.3046 9.336 30.4186 9.804 30.6466 10.08C30.8866 10.356 31.2946 10.566 31.8706 10.71L34.3906 11.34C35.3146 11.568 35.9626 11.958 36.3346 12.51C36.7066 13.062 36.8926 13.836 36.8926 14.832C36.8926 16.2 36.5806 17.106 35.9566 17.55C35.3446 17.994 34.2706 18.216 32.7346 18.216C31.4266 18.216 30.1426 18.102 28.8826 17.874L28.9906 16.704C31.0066 16.776 32.2726 16.806 32.7886 16.794C33.7726 16.794 34.4326 16.668 34.7686 16.416C35.1166 16.164 35.2906 15.624 35.2906 14.796C35.2906 14.112 35.1706 13.638 34.9306 13.374C34.7026 13.098 34.3006 12.888 33.7246 12.744ZM43.8145 12.744L41.2405 12.096C40.3645 11.88 39.7345 11.496 39.3505 10.944C38.9785 10.38 38.7925 9.612 38.7925 8.64C38.7925 7.92 38.8645 7.344 39.0085 6.912C39.1645 6.468 39.4225 6.138 39.7825 5.922C40.1545 5.694 40.5625 5.544 41.0065 5.472C41.4625 5.4 42.0685 5.364 42.8245 5.364C44.2885 5.388 45.5185 5.508 46.5145 5.724L46.4065 6.876C45.2425 6.816 44.0725 6.786 42.8965 6.786C42.3685 6.786 41.9785 6.798 41.7265 6.822C41.4745 6.846 41.2285 6.918 40.9885 7.038C40.7485 7.158 40.5865 7.35 40.5025 7.614C40.4305 7.866 40.3945 8.22 40.3945 8.676C40.3945 9.336 40.5085 9.804 40.7365 10.08C40.9765 10.356 41.3845 10.566 41.9605 10.71L44.4805 11.34C45.4045 11.568 46.0525 11.958 46.4245 12.51C46.7965 13.062 46.9825 13.836 46.9825 14.832C46.9825 16.2 46.6705 17.106 46.0465 17.55C45.4345 17.994 44.3605 18.216 42.8245 18.216C41.5165 18.216 40.2325 18.102 38.9725 17.874L39.0805 16.704C41.0965 16.776 42.3625 16.806 42.8785 16.794C43.8625 16.794 44.5225 16.668 44.8585 16.416C45.2065 16.164 45.3805 15.624 45.3805 14.796C45.3805 14.112 45.2605 13.638 45.0205 13.374C44.7925 13.098 44.3905 12.888 43.8145 12.744Z" transform="translate(804.617 247.379) rotate(45.5333)" fill="white"/>
<defs>
<filter id="filter0_d" x="0" y="101" width="108" height="108" filterUnits="userSpaceOnUse" color-interpolation-filters="sRGB">
<feFlood flood-opacity="0" result="BackgroundImageFix"/>
<feColorMatrix in="SourceAlpha" type="matrix" values="0 0 0 0 0 0 0 0 0 0 0 0 0 0 0 0 0 0 255 0"/>
<feOffset dy="4"/>
<feGaussianBlur stdDeviation="2"/>
<feColorMatrix type="matrix" values="0 0 0 0 0 0 0 0 0 0 0 0 0 0 0 0 0 0 0.25 0"/>
<feBlend mode="normal" in2="BackgroundImageFix" result="effect1_dropShadow"/>
<feBlend mode="normal" in="SourceGraphic" in2="effect1_dropShadow" result="shape"/>
</filter>
<filter id="filter1_d" x="215" y="0" width="144.603" height="144.603" filterUnits="userSpaceOnUse" color-interpolation-filters="sRGB">
<feFlood flood-opacity="0" result="BackgroundImageFix"/>
<feColorMatrix in="SourceAlpha" type="matrix" values="0 0 0 0 0 0 0 0 0 0 0 0 0 0 0 0 0 0 255 0"/>
<feOffset dy="4"/>
<feGaussianBlur stdDeviation="2"/>
<feColorMatrix type="matrix" values="0 0 0 0 0 0 0 0 0 0 0 0 0 0 0 0 0 0 0.25 0"/>
<feBlend mode="normal" in2="BackgroundImageFix" result="effect1_dropShadow"/>
<feBlend mode="normal" in="SourceGraphic" in2="effect1_dropShadow" result="shape"/>
</filter>
<filter id="filter2_d" x="542" y="49" width="147.324" height="147.324" filterUnits="userSpaceOnUse" color-interpolation-filters="sRGB">
<feFlood flood-opacity="0" result="BackgroundImageFix"/>
<feColorMatrix in="SourceAlpha" type="matrix" values="0 0 0 0 0 0 0 0 0 0 0 0 0 0 0 0 0 0 255 0"/>
<feOffset dy="4"/>
<feGaussianBlur stdDeviation="2"/>
<feColorMatrix type="matrix" values="0 0 0 0 0 0 0 0 0 0 0 0 0 0 0 0 0 0 0.25 0"/>
<feBlend mode="normal" in2="BackgroundImageFix" result="effect1_dropShadow"/>
<feBlend mode="normal" in="SourceGraphic" in2="effect1_dropShadow" result="shape"/>
</filter>
<filter id="filter3_d" x="116.183" y="274.183" width="148.959" height="148.959" filterUnits="userSpaceOnUse" color-interpolation-filters="sRGB">
<feFlood flood-opacity="0" result="BackgroundImageFix"/>
<feColorMatrix in="SourceAlpha" type="matrix" values="0 0 0 0 0 0 0 0 0 0 0 0 0 0 0 0 0 0 255 0"/>
<feOffset dy="4"/>
<feGaussianBlur stdDeviation="2"/>
<feColorMatrix type="matrix" values="0 0 0 0 0 0 0 0 0 0 0 0 0 0 0 0 0 0 0.25 0"/>
<feBlend mode="normal" in2="BackgroundImageFix" result="effect1_dropShadow"/>
<feBlend mode="normal" in="SourceGraphic" in2="effect1_dropShadow" result="shape"/>
</filter>
<filter id="filter4_d" x="352" y="189" width="147.324" height="147.324" filterUnits="userSpaceOnUse" color-interpolation-filters="sRGB">
<feFlood flood-opacity="0" result="BackgroundImageFix"/>
<feColorMatrix in="SourceAlpha" type="matrix" values="0 0 0 0 0 0 0 0 0 0 0 0 0 0 0 0 0 0 255 0"/>
<feOffset dy="4"/>
<feGaussianBlur stdDeviation="2"/>
<feColorMatrix type="matrix" values="0 0 0 0 0 0 0 0 0 0 0 0 0 0 0 0 0 0 0.25 0"/>
<feBlend mode="normal" in2="BackgroundImageFix" result="effect1_dropShadow"/>
<feBlend mode="normal" in="SourceGraphic" in2="effect1_dropShadow" result="shape"/>
</filter>
<filter id="filter5_d" x="765" y="228" width="108.587" height="108.587" filterUnits="userSpaceOnUse" color-interpolation-filters="sRGB">
<feFlood flood-opacity="0" result="BackgroundImageFix"/>
<feColorMatrix in="SourceAlpha" type="matrix" values="0 0 0 0 0 0 0 0 0 0 0 0 0 0 0 0 0 0 255 0"/>
<feOffset dy="4"/>
<feGaussianBlur stdDeviation="2"/>
<feColorMatrix type="matrix" values="0 0 0 0 0 0 0 0 0 0 0 0 0 0 0 0 0 0 0.25 0"/>
<feBlend mode="normal" in2="BackgroundImageFix" result="effect1_dropShadow"/>
<feBlend mode="normal" in="SourceGraphic" in2="effect1_dropShadow" result="shape"/>
</filter>
</defs>
</svg>
