<svg width="824" height="366" viewBox="0 0 824 366" fill="none" xmlns="http://www.w3.org/2000/svg">
<g filter="url(#filter0_d)">
<rect width="816" height="358" transform="translate(4)" fill="#E74C3C"/>
<circle cx="45" cy="45" r="45" transform="translate(367 134)" fill="white"/>
<path d="M24.5 0L45.7176 36.75H3.28238L24.5 0Z" transform="translate(437 154) rotate(90)" fill="#EB5757"/>
</g>
<g filter="url(#filter1_d)">
<line y1="-1.5" x2="679" y2="-1.5" transform="translate(72 335)" stroke="white" stroke-width="3"/>
</g>
<g filter="url(#filter2_d)">
<circle cx="6" cy="6" r="6" transform="translate(567 327)" fill="white"/>
</g>
<g filter="url(#filter3_d)">
<path d="M0.993016 5.58H8.01302C8.38502 5.58 8.64302 5.676 8.78702 5.868C8.93102 6.06 8.94902 6.33 8.84102 6.678L4.97102 18H3.38702L6.87902 7.848C6.98702 7.524 7.11302 7.218 7.25702 6.93H1.06502L0.993016 5.58ZM11.32 10.08H11.824C12.028 10.08 12.172 10.122 12.256 10.206C12.352 10.29 12.4 10.434 12.4 10.638V11.628C12.4 11.844 12.352 11.994 12.256 12.078C12.172 12.162 12.028 12.204 11.824 12.204H11.32C11.116 12.204 10.966 12.162 10.87 12.078C10.786 11.994 10.744 11.844 10.744 11.628V10.638C10.744 10.434 10.786 10.29 10.87 10.206C10.966 10.122 11.116 10.08 11.32 10.08ZM11.32 15.876H11.824C12.028 15.876 12.172 15.918 12.256 16.002C12.352 16.086 12.4 16.236 12.4 16.452V17.424C12.4 17.64 12.352 17.79 12.256 17.874C12.172 17.958 12.028 18 11.824 18H11.32C11.116 18 10.966 17.958 10.87 17.874C10.786 17.79 10.744 17.64 10.744 17.424V16.452C10.744 16.236 10.786 16.086 10.87 16.002C10.966 15.918 11.116 15.876 11.32 15.876ZM14.9619 7.056L14.8539 5.832C16.1859 5.52 17.4459 5.364 18.6339 5.364C19.9419 5.364 20.9019 5.55 21.5139 5.922C22.1379 6.282 22.4499 6.99 22.4499 8.046C22.4499 8.826 22.2879 9.546 21.9639 10.206C21.6399 10.854 21.0639 11.64 20.2359 12.564L16.6719 16.542C17.2359 16.494 17.9079 16.47 18.6879 16.47H22.8999V18H14.7459V17.01C14.7459 16.722 14.8239 16.494 14.9799 16.326L18.5799 12.258C19.3959 11.382 19.9839 10.62 20.3439 9.972C20.7039 9.312 20.8719 8.694 20.8479 8.118C20.8359 7.554 20.6439 7.188 20.2719 7.02C19.9119 6.852 19.3299 6.768 18.5259 6.768C17.3259 6.768 16.1379 6.864 14.9619 7.056ZM25.9693 6.84C26.6053 5.844 27.7093 5.346 29.2813 5.346C30.8533 5.346 31.9573 5.844 32.5933 6.84C33.2413 7.836 33.5653 9.486 33.5653 11.79C33.5653 14.094 33.2413 15.744 32.5933 16.74C31.9573 17.736 30.8533 18.234 29.2813 18.234C27.7093 18.234 26.6053 17.736 25.9693 16.74C25.3333 15.744 25.0153 14.094 25.0153 11.79C25.0153 9.486 25.3333 7.836 25.9693 6.84ZM31.4053 7.866C31.0093 7.11 30.3013 6.732 29.2813 6.732C28.2613 6.732 27.5533 7.11 27.1573 7.866C26.7613 8.622 26.5633 9.93 26.5633 11.79C26.5633 13.65 26.7613 14.958 27.1573 15.714C27.5533 16.47 28.2613 16.848 29.2813 16.848C30.3013 16.848 31.0093 16.47 31.4053 15.714C31.8133 14.958 32.0173 13.65 32.0173 11.79C32.0173 9.93 31.8133 8.622 31.4053 7.866Z" transform="translate(769 319)" fill="white"/>
</g>
<g filter="url(#filter4_d)">
<path d="M8.89095 5.634L8.74695 6.786C8.21895 6.738 7.43295 6.714 6.38895 6.714C5.77695 6.714 5.28495 6.768 4.91295 6.876C4.55295 6.984 4.23495 7.2 3.95895 7.524C3.68295 7.836 3.48495 8.286 3.36495 8.874C3.24495 9.45 3.17295 10.224 3.14895 11.196C3.58095 10.716 4.03095 10.38 4.49895 10.188C4.97895 9.996 5.57295 9.9 6.28095 9.9C7.57695 9.9 8.46495 10.2 8.94495 10.8C9.43695 11.4 9.68295 12.462 9.68295 13.986C9.68295 14.682 9.63495 15.27 9.53895 15.75C9.44295 16.218 9.25695 16.65 8.98095 17.046C8.71695 17.442 8.31495 17.736 7.77495 17.928C7.24695 18.12 6.57495 18.216 5.75895 18.216C5.03895 18.216 4.43895 18.15 3.95895 18.018C3.49095 17.886 3.09495 17.688 2.77095 17.424C2.44695 17.16 2.19495 16.776 2.01495 16.272C1.84695 15.768 1.72695 15.192 1.65495 14.544C1.59495 13.896 1.56495 13.08 1.56495 12.096C1.56495 10.932 1.63095 9.954 1.76295 9.162C1.89495 8.358 2.07495 7.71 2.30295 7.218C2.54295 6.714 2.86695 6.33 3.27495 6.066C3.69495 5.79 4.13895 5.604 4.60695 5.508C5.08695 5.412 5.68095 5.364 6.38895 5.364C7.38495 5.364 8.21895 5.454 8.89095 5.634ZM5.77695 16.866C6.77295 16.866 7.42095 16.644 7.72095 16.2C8.02095 15.756 8.17095 15.018 8.17095 13.986C8.17095 12.942 8.00895 12.216 7.68495 11.808C7.37295 11.388 6.76695 11.178 5.86695 11.178C5.35095 11.178 4.88895 11.262 4.48095 11.43C4.08495 11.586 3.63495 11.886 3.13095 12.33C3.13095 13.098 3.14295 13.704 3.16695 14.148C3.20295 14.592 3.26895 15.012 3.36495 15.408C3.46095 15.804 3.60495 16.098 3.79695 16.29C4.00095 16.47 4.25895 16.614 4.57095 16.722C4.88295 16.818 5.28495 16.866 5.77695 16.866ZM12.4957 10.08H12.9997C13.2037 10.08 13.3477 10.122 13.4317 10.206C13.5277 10.29 13.5757 10.434 13.5757 10.638V11.628C13.5757 11.844 13.5277 11.994 13.4317 12.078C13.3477 12.162 13.2037 12.204 12.9997 12.204H12.4957C12.2917 12.204 12.1417 12.162 12.0457 12.078C11.9617 11.994 11.9197 11.844 11.9197 11.628V10.638C11.9197 10.434 11.9617 10.29 12.0457 10.206C12.1417 10.122 12.2917 10.08 12.4957 10.08ZM12.4957 15.876H12.9997C13.2037 15.876 13.3477 15.918 13.4317 16.002C13.5277 16.086 13.5757 16.236 13.5757 16.452V17.424C13.5757 17.64 13.5277 17.79 13.4317 17.874C13.3477 17.958 13.2037 18 12.9997 18H12.4957C12.2917 18 12.1417 17.958 12.0457 17.874C11.9617 17.79 11.9197 17.64 11.9197 17.424V16.452C11.9197 16.236 11.9617 16.086 12.0457 16.002C12.1417 15.918 12.2917 15.876 12.4957 15.876ZM17.0376 6.84C17.6736 5.844 18.7776 5.346 20.3496 5.346C21.9216 5.346 23.0256 5.844 23.6616 6.84C24.3096 7.836 24.6336 9.486 24.6336 11.79C24.6336 14.094 24.3096 15.744 23.6616 16.74C23.0256 17.736 21.9216 18.234 20.3496 18.234C18.7776 18.234 17.6736 17.736 17.0376 16.74C16.4016 15.744 16.0836 14.094 16.0836 11.79C16.0836 9.486 16.4016 7.836 17.0376 6.84ZM22.4736 7.866C22.0776 7.11 21.3696 6.732 20.3496 6.732C19.3296 6.732 18.6216 7.11 18.2256 7.866C17.8296 8.622 17.6316 9.93 17.6316 11.79C17.6316 13.65 17.8296 14.958 18.2256 15.714C18.6216 16.47 19.3296 16.848 20.3496 16.848C21.3696 16.848 22.0776 16.47 22.4736 15.714C22.8816 14.958 23.0856 13.65 23.0856 11.79C23.0856 9.93 22.8816 8.622 22.4736 7.866ZM27.8833 6.84C28.5193 5.844 29.6233 5.346 31.1953 5.346C32.7673 5.346 33.8713 5.844 34.5073 6.84C35.1553 7.836 35.4793 9.486 35.4793 11.79C35.4793 14.094 35.1553 15.744 34.5073 16.74C33.8713 17.736 32.7673 18.234 31.1953 18.234C29.6233 18.234 28.5193 17.736 27.8833 16.74C27.2473 15.744 26.9293 14.094 26.9293 11.79C26.9293 9.486 27.2473 7.836 27.8833 6.84ZM33.3193 7.866C32.9233 7.11 32.2153 6.732 31.1953 6.732C30.1753 6.732 29.4673 7.11 29.0713 7.866C28.6753 8.622 28.4773 9.93 28.4773 11.79C28.4773 13.65 28.6753 14.958 29.0713 15.714C29.4673 16.47 30.1753 16.848 31.1953 16.848C32.2153 16.848 32.9233 16.47 33.3193 15.714C33.7273 14.958 33.9313 13.65 33.9313 11.79C33.9313 9.93 33.7273 8.622 33.3193 7.866Z" transform="translate(18 319)" fill="white"/>
</g>
<defs>
<filter id="filter0_d" x="0" y="0" width="824" height="366" filterUnits="userSpaceOnUse" color-interpolation-filters="sRGB">
<feFlood flood-opacity="0" result="BackgroundImageFix"/>
<feColorMatrix in="SourceAlpha" type="matrix" values="0 0 0 0 0 0 0 0 0 0 0 0 0 0 0 0 0 0 255 0"/>
<feOffset dy="4"/>
<feGaussianBlur stdDeviation="2"/>
<feColorMatrix type="matrix" values="0 0 0 0 0 0 0 0 0 0 0 0 0 0 0 0 0 0 0.25 0"/>
<feBlend mode="normal" in2="BackgroundImageFix" result="effect1_dropShadow"/>
<feBlend mode="normal" in="SourceGraphic" in2="effect1_dropShadow" result="shape"/>
</filter>
<filter id="filter1_d" x="68" y="332" width="687" height="11" filterUnits="userSpaceOnUse" color-interpolation-filters="sRGB">
<feFlood flood-opacity="0" result="BackgroundImageFix"/>
<feColorMatrix in="SourceAlpha" type="matrix" values="0 0 0 0 0 0 0 0 0 0 0 0 0 0 0 0 0 0 255 0"/>
<feOffset dy="4"/>
<feGaussianBlur stdDeviation="2"/>
<feColorMatrix type="matrix" values="0 0 0 0 0 0 0 0 0 0 0 0 0 0 0 0 0 0 0.25 0"/>
<feBlend mode="normal" in2="BackgroundImageFix" result="effect1_dropShadow"/>
<feBlend mode="normal" in="SourceGraphic" in2="effect1_dropShadow" result="shape"/>
</filter>
<filter id="filter2_d" x="563" y="327" width="20" height="20" filterUnits="userSpaceOnUse" color-interpolation-filters="sRGB">
<feFlood flood-opacity="0" result="BackgroundImageFix"/>
<feColorMatrix in="SourceAlpha" type="matrix" values="0 0 0 0 0 0 0 0 0 0 0 0 0 0 0 0 0 0 255 0"/>
<feOffset dy="4"/>
<feGaussianBlur stdDeviation="2"/>
<feColorMatrix type="matrix" values="0 0 0 0 0 0 0 0 0 0 0 0 0 0 0 0 0 0 0.25 0"/>
<feBlend mode="normal" in2="BackgroundImageFix" result="effect1_dropShadow"/>
<feBlend mode="normal" in="SourceGraphic" in2="effect1_dropShadow" result="shape"/>
</filter>
<filter id="filter3_d" x="765.993" y="324.346" width="40.5723" height="20.888" filterUnits="userSpaceOnUse" color-interpolation-filters="sRGB">
<feFlood flood-opacity="0" result="BackgroundImageFix"/>
<feColorMatrix in="SourceAlpha" type="matrix" values="0 0 0 0 0 0 0 0 0 0 0 0 0 0 0 0 0 0 255 0"/>
<feOffset dy="4"/>
<feGaussianBlur stdDeviation="2"/>
<feColorMatrix type="matrix" values="0 0 0 0 0 0 0 0 0 0 0 0 0 0 0 0 0 0 0.25 0"/>
<feBlend mode="normal" in2="BackgroundImageFix" result="effect1_dropShadow"/>
<feBlend mode="normal" in="SourceGraphic" in2="effect1_dropShadow" result="shape"/>
</filter>
<filter id="filter4_d" x="15.5649" y="324.346" width="41.9144" height="20.888" filterUnits="userSpaceOnUse" color-interpolation-filters="sRGB">
<feFlood flood-opacity="0" result="BackgroundImageFix"/>
<feColorMatrix in="SourceAlpha" type="matrix" values="0 0 0 0 0 0 0 0 0 0 0 0 0 0 0 0 0 0 255 0"/>
<feOffset dy="4"/>
<feGaussianBlur stdDeviation="2"/>
<feColorMatrix type="matrix" values="0 0 0 0 0 0 0 0 0 0 0 0 0 0 0 0 0 0 0.25 0"/>
<feBlend mode="normal" in2="BackgroundImageFix" result="effect1_dropShadow"/>
<feBlend mode="normal" in="SourceGraphic" in2="effect1_dropShadow" result="shape"/>
</filter>
</defs>
</svg>
