<svg width="23" height="22" viewBox="0 0 23 22" fill="none" xmlns="http://www.w3.org/2000/svg">
<mask id="path-1-inside-1" fill="white">
<path d="M7 14C10.866 14 14 10.866 14 7C14 3.13401 10.866 0 7 0C3.13401 0 0 3.13401 0 7C0 10.866 3.13401 14 7 14Z"/>
</mask>
<path d="M7 14C10.866 14 14 10.866 14 7C14 3.13401 10.866 0 7 0C3.13401 0 0 3.13401 0 7C0 10.866 3.13401 14 7 14Z" stroke="#5A636A" stroke-width="4" mask="url(#path-1-inside-1)"/>
<line y1="-1" x2="14.1421" y2="-1" transform="translate(11 12) rotate(45)" stroke="#5A636A" stroke-width="2"/>
</svg>
